<?xml version="1.0" encoding="UTF-8" ?>
<!DOCTYPE svg PUBLIC "-//W3C//DTD SVG 1.1//EN" "http://www.w3.org/Graphics/SVG/1.1/DTD/svg11.dtd">
<svg width="384pt" height="360pt" viewBox="0 0 384 360" version="1.1" xmlns="http://www.w3.org/2000/svg">
<g id="#ffffffff">
</g>
<g id="#000000ff">
<path fill="#000000" opacity="1.00" d=" M 184.65 44.00 C 184.52 39.06 187.96 34.12 192.87 33.07 C 196.12 32.99 199.77 32.38 202.57 34.45 C 205.74 36.51 207.54 40.22 207.54 43.96 C 207.59 55.57 207.53 67.18 207.56 78.79 C 249.28 81.77 288.71 105.67 311.19 140.85 C 321.49 156.51 328.34 174.38 331.49 192.84 C 334.03 207.75 333.29 222.92 333.41 237.97 C 333.28 248.18 334.24 258.74 330.59 268.50 C 323.33 290.83 301.19 307.40 277.63 307.45 C 224.42 307.57 171.20 307.47 117.99 307.50 C 110.49 307.58 102.86 306.85 95.88 303.94 C 75.44 296.69 60.20 276.66 58.90 254.98 C 58.68 242.65 58.86 230.31 58.80 217.97 C 56.96 175.94 77.44 134.17 110.29 108.26 C 131.38 91.32 157.62 80.76 184.63 78.78 C 184.65 67.19 184.60 55.59 184.65 44.00 M 184.55 101.78 C 154.66 104.73 126.15 119.91 107.27 143.31 C 91.63 162.26 82.29 186.40 81.42 210.98 C 81.59 224.69 81.34 238.40 81.55 252.11 C 82.02 266.58 92.92 279.88 106.91 283.43 C 113.75 285.43 120.94 284.56 127.96 284.75 C 176.98 284.75 226.01 284.75 275.03 284.75 C 285.38 284.89 295.81 280.48 302.42 272.42 C 308.42 265.87 311.03 256.80 310.72 248.03 C 310.44 228.50 312.01 208.65 307.41 189.46 C 298.74 151.49 269.30 118.87 232.06 107.12 C 216.91 101.59 200.52 100.59 184.55 101.78 Z" />
<path fill="#000000" opacity="1.00" d=" M 132.42 170.66 C 143.76 168.45 156.18 172.41 163.93 181.01 C 173.36 191.15 175.93 207.11 169.68 219.55 C 165.62 227.48 158.55 234.07 150.04 236.91 C 139.65 240.65 127.42 238.95 118.57 232.30 C 109.93 226.03 104.41 215.69 104.42 204.97 C 103.63 188.70 116.37 173.22 132.42 170.66 M 135.43 193.59 C 130.49 194.95 126.98 199.87 127.36 204.99 C 127.39 210.96 132.99 216.27 138.96 215.79 C 145.90 216.10 151.82 208.70 149.86 201.98 C 148.78 195.63 141.44 191.48 135.43 193.59 Z" />
<path fill="#000000" opacity="1.00" d=" M 246.57 170.74 C 257.67 168.43 269.87 172.04 277.79 180.19 C 286.77 189.33 290.19 203.59 285.87 215.72 C 282.15 226.46 272.75 235.13 261.68 237.82 C 252.11 240.26 241.43 238.36 233.45 232.49 C 224.98 226.42 219.35 216.50 219.08 206.02 C 217.74 189.57 230.36 173.58 246.57 170.74 M 249.43 193.81 C 245.46 195.10 242.53 198.77 242.05 202.90 C 240.95 209.32 246.40 216.00 252.98 215.79 C 260.08 216.47 266.42 209.03 264.53 202.11 C 263.48 195.46 255.58 191.21 249.43 193.81 Z" />
</g>
</svg>
